<svg width="585" height="404" viewBox="0 0 585 404" fill="none" xmlns="http://www.w3.org/2000/svg">
<g clip-path="url(#clip0_270_119)">
<path d="M340.762 71.2205C351.726 71.2205 360.614 62.781 360.614 52.3704C360.614 41.9598 351.726 33.5203 340.762 33.5203C329.798 33.5203 320.91 41.9598 320.91 52.3704C320.91 62.781 329.798 71.2205 340.762 71.2205Z" fill="#F2F2F2"/>
<path d="M494.76 350.977C524.267 329.636 538.361 293.775 529.538 259.566C529.319 258.716 529.087 257.868 528.844 257.022C522.994 236.715 508.523 217.416 487.431 210.927C469.721 205.48 450.39 209.669 431.914 207.502C395.645 203.25 367.527 175.385 347.742 146.21C327.957 117.035 312.751 84.3785 286.461 60.2759C243.127 20.5468 172.437 11.9932 118.708 37.8538C64.9794 63.7145 30.7547 121.089 32.2143 178.269C33.674 235.449 69.4237 290.118 121.341 319.123C140.414 329.778 162.473 337.327 184.426 334.685C203.474 332.394 220.782 322.675 239.741 319.79C269.549 315.253 299.167 328.05 324.948 342.962C350.73 357.875 375.633 375.55 404.93 382.463C433.377 389.176 468.62 369.882 494.76 350.977Z" fill="#F2F2F2"/>
<path d="M452.364 39.0545C451.717 38.645 451.063 38.2568 450.416 37.8614C431.718 26.5063 411.676 17.2816 390.706 10.3778L385.843 74.0709H355.018V1.08008C353.077 0.698854 351.122 0.338807 349.167 -6.10352e-05V74.0709H312.534C292.368 74.0709 273.027 66.4641 258.768 52.924C244.508 39.3839 236.497 21.0195 236.497 1.87086V1.87079C234.534 2.2732 232.586 2.70384 230.638 3.16273V74.0709H200.801L196.169 13.3358C174.619 21.1837 154.159 31.5039 135.247 44.067C134.92 44.2787 134.593 44.4976 134.273 44.7094C132.63 45.8036 131.009 46.9191 129.396 48.0487V291.038H217.329L215.775 270.6L207.225 158.386H379.412L370.862 270.6L369.308 291.038H456.268V41.5113C454.974 40.6783 453.673 39.8594 452.364 39.0545ZM230.638 139.854H205.812L201.225 79.634H230.638V139.854ZM349.167 139.854H307.471V138.661C307.471 138.087 307.352 137.519 307.121 136.989C306.889 136.46 306.55 135.978 306.123 135.573C305.695 135.168 305.188 134.847 304.63 134.628C304.071 134.409 303.473 134.297 302.869 134.298H284.742C284.139 134.297 283.541 134.41 282.984 134.629C282.426 134.848 281.919 135.17 281.493 135.575C281.066 135.98 280.728 136.461 280.497 136.991C280.266 137.52 280.147 138.088 280.148 138.661V139.854H236.497V79.634H349.167V139.854ZM355.018 139.854V79.634H385.42L380.832 139.854H355.018Z" fill="#3F3D56"/>
<path d="M-3.05176e-05 306.599C6.45893 313.866 13.445 320.695 20.9072 327.037L564.093 327.743C571.555 321.401 578.541 314.572 585 307.305L-3.05176e-05 306.599Z" fill="#3F3D56"/>
<path d="M368.352 241.155V301.66C368.352 302.431 368.675 303.17 369.249 303.716C369.824 304.261 370.602 304.567 371.414 304.568H465.842C466.654 304.567 467.433 304.261 468.007 303.716C468.581 303.17 468.904 302.431 468.905 301.66V241.155C468.903 240.385 468.579 239.646 468.005 239.102C467.431 238.558 466.653 238.251 465.842 238.25H371.414C370.603 238.251 369.825 238.558 369.251 239.102C368.677 239.646 368.354 240.385 368.352 241.155Z" fill="#3F3D56"/>
<path d="M370.567 241.908V300.914C370.568 301.326 370.74 301.721 371.047 302.012C371.354 302.303 371.77 302.467 372.204 302.468H465.056C465.49 302.467 465.906 302.303 466.212 302.012C466.519 301.721 466.692 301.326 466.693 300.914V241.908C466.693 241.495 466.52 241.1 466.213 240.808C465.907 240.516 465.49 240.351 465.056 240.351H372.204C371.769 240.351 371.353 240.516 371.046 240.808C370.739 241.1 370.567 241.495 370.567 241.908Z" fill="#00BFA6"/>
<path d="M366.377 313.46C366.55 313.666 366.77 313.832 367.02 313.946C367.27 314.06 367.544 314.118 367.822 314.117H468.932C469.208 314.116 469.481 314.057 469.731 313.944C469.98 313.831 470.2 313.667 470.374 313.463C470.549 313.259 470.673 313.021 470.738 312.765C470.803 312.51 470.807 312.245 470.75 311.988L469.181 304.909C469.116 304.62 468.976 304.351 468.773 304.127C468.571 303.903 468.313 303.73 468.022 303.625C467.812 303.547 467.588 303.507 467.362 303.507H369.385C369.159 303.507 368.935 303.547 368.725 303.625C368.434 303.73 368.176 303.903 367.974 304.127C367.772 304.351 367.631 304.62 367.566 304.909L365.997 311.988C365.941 312.244 365.946 312.51 366.012 312.765C366.078 313.019 366.202 313.257 366.377 313.46Z" fill="#2F2E41"/>
<path d="M463.893 306.556H466.281C466.482 306.556 466.644 306.402 466.644 306.211V305.127C466.644 304.936 466.482 304.782 466.281 304.782H463.893C463.692 304.782 463.53 304.936 463.53 305.127V306.211C463.53 306.402 463.692 306.556 463.893 306.556Z" fill="#3F3D56"/>
<path d="M457.665 306.556H460.053C460.253 306.556 460.416 306.402 460.416 306.211V305.127C460.416 304.936 460.253 304.782 460.053 304.782H457.665C457.464 304.782 457.302 304.936 457.302 305.127V306.211C457.302 306.402 457.464 306.556 457.665 306.556Z" fill="#3F3D56"/>
<path d="M451.436 306.556H453.825C454.025 306.556 454.187 306.402 454.187 306.211V305.127C454.187 304.936 454.025 304.782 453.825 304.782H451.436C451.236 304.782 451.073 304.936 451.073 305.127V306.211C451.073 306.402 451.236 306.556 451.436 306.556Z" fill="#3F3D56"/>
<path d="M445.208 306.556H447.596C447.797 306.556 447.959 306.402 447.959 306.211V305.127C447.959 304.936 447.797 304.782 447.596 304.782H445.208C445.008 304.782 444.845 304.936 444.845 305.127V306.211C444.845 306.402 445.008 306.556 445.208 306.556Z" fill="#3F3D56"/>
<path d="M438.98 306.556H441.368C441.568 306.556 441.731 306.402 441.731 306.211V305.127C441.731 304.936 441.568 304.782 441.368 304.782H438.98C438.779 304.782 438.617 304.936 438.617 305.127V306.211C438.617 306.402 438.779 306.556 438.98 306.556Z" fill="#3F3D56"/>
<path d="M432.752 306.556H435.14C435.34 306.556 435.503 306.402 435.503 306.211V305.127C435.503 304.936 435.34 304.782 435.14 304.782H432.752C432.551 304.782 432.389 304.936 432.389 305.127V306.211C432.389 306.402 432.551 306.556 432.752 306.556Z" fill="#3F3D56"/>
<path d="M426.523 306.556H428.911C429.112 306.556 429.274 306.402 429.274 306.211V305.127C429.274 304.936 429.112 304.782 428.911 304.782H426.523C426.323 304.782 426.16 304.936 426.16 305.127V306.211C426.16 306.402 426.323 306.556 426.523 306.556Z" fill="#3F3D56"/>
<path d="M420.295 306.556H422.683C422.884 306.556 423.046 306.402 423.046 306.211V305.127C423.046 304.936 422.884 304.782 422.683 304.782H420.295C420.094 304.782 419.932 304.936 419.932 305.127V306.211C419.932 306.402 420.094 306.556 420.295 306.556Z" fill="#3F3D56"/>
<path d="M414.067 306.556H416.455C416.655 306.556 416.818 306.402 416.818 306.211V305.127C416.818 304.936 416.655 304.782 416.455 304.782H414.067C413.866 304.782 413.704 304.936 413.704 305.127V306.211C413.704 306.402 413.866 306.556 414.067 306.556Z" fill="#3F3D56"/>
<path d="M407.838 306.556H410.227C410.427 306.556 410.59 306.402 410.59 306.211V305.127C410.59 304.936 410.427 304.782 410.227 304.782H407.838C407.638 304.782 407.475 304.936 407.475 305.127V306.211C407.475 306.402 407.638 306.556 407.838 306.556Z" fill="#3F3D56"/>
<path d="M401.61 306.556H403.998C404.199 306.556 404.361 306.402 404.361 306.211V305.127C404.361 304.936 404.199 304.782 403.998 304.782H401.61C401.41 304.782 401.247 304.936 401.247 305.127V306.211C401.247 306.402 401.41 306.556 401.61 306.556Z" fill="#3F3D56"/>
<path d="M395.382 306.556H397.77C397.97 306.556 398.133 306.402 398.133 306.211V305.127C398.133 304.936 397.97 304.782 397.77 304.782H395.382C395.181 304.782 395.019 304.936 395.019 305.127V306.211C395.019 306.402 395.181 306.556 395.382 306.556Z" fill="#3F3D56"/>
<path d="M389.154 306.556H391.542C391.742 306.556 391.905 306.402 391.905 306.211V305.127C391.905 304.936 391.742 304.782 391.542 304.782H389.154C388.953 304.782 388.791 304.936 388.791 305.127V306.211C388.791 306.402 388.953 306.556 389.154 306.556Z" fill="#3F3D56"/>
<path d="M382.925 306.556H385.313C385.514 306.556 385.676 306.402 385.676 306.211V305.127C385.676 304.936 385.514 304.782 385.313 304.782H382.925C382.725 304.782 382.562 304.936 382.562 305.127V306.211C382.562 306.402 382.725 306.556 382.925 306.556Z" fill="#3F3D56"/>
<path d="M376.697 306.556H379.085C379.286 306.556 379.448 306.402 379.448 306.211V305.127C379.448 304.936 379.286 304.782 379.085 304.782H376.697C376.497 304.782 376.334 304.936 376.334 305.127V306.211C376.334 306.402 376.497 306.556 376.697 306.556Z" fill="#3F3D56"/>
<path d="M370.469 306.556H372.857C373.057 306.556 373.22 306.402 373.22 306.211V305.127C373.22 304.936 373.057 304.782 372.857 304.782H370.469C370.268 304.782 370.106 304.936 370.106 305.127V306.211C370.106 306.402 370.268 306.556 370.469 306.556Z" fill="#3F3D56"/>
<path d="M463.967 309.513H466.355C466.555 309.513 466.718 309.359 466.718 309.168V308.084C466.718 307.893 466.555 307.739 466.355 307.739H463.967C463.766 307.739 463.604 307.893 463.604 308.084V309.168C463.604 309.359 463.766 309.513 463.967 309.513Z" fill="#3F3D56"/>
<path d="M457.738 309.513H460.126C460.327 309.513 460.489 309.359 460.489 309.168V308.084C460.489 307.893 460.327 307.739 460.126 307.739H457.738C457.538 307.739 457.375 307.893 457.375 308.084V309.168C457.375 309.359 457.538 309.513 457.738 309.513Z" fill="#3F3D56"/>
<path d="M451.51 309.513H453.898C454.099 309.513 454.261 309.359 454.261 309.168V308.084C454.261 307.893 454.099 307.739 453.898 307.739H451.51C451.309 307.739 451.147 307.893 451.147 308.084V309.168C451.147 309.359 451.309 309.513 451.51 309.513Z" fill="#3F3D56"/>
<path d="M445.282 309.513H447.67C447.87 309.513 448.033 309.359 448.033 309.168V308.084C448.033 307.893 447.87 307.739 447.67 307.739H445.282C445.081 307.739 444.919 307.893 444.919 308.084V309.168C444.919 309.359 445.081 309.513 445.282 309.513Z" fill="#3F3D56"/>
<path d="M439.053 309.513H441.442C441.642 309.513 441.805 309.359 441.805 309.168V308.084C441.805 307.893 441.642 307.739 441.442 307.739H439.053C438.853 307.739 438.69 307.893 438.69 308.084V309.168C438.69 309.359 438.853 309.513 439.053 309.513Z" fill="#3F3D56"/>
<path d="M432.825 309.513H435.213C435.414 309.513 435.576 309.359 435.576 309.168V308.084C435.576 307.893 435.414 307.739 435.213 307.739H432.825C432.625 307.739 432.462 307.893 432.462 308.084V309.168C432.462 309.359 432.625 309.513 432.825 309.513Z" fill="#3F3D56"/>
<path d="M426.597 309.513H428.985C429.185 309.513 429.348 309.359 429.348 309.168V308.084C429.348 307.893 429.185 307.739 428.985 307.739H426.597C426.396 307.739 426.234 307.893 426.234 308.084V309.168C426.234 309.359 426.396 309.513 426.597 309.513Z" fill="#3F3D56"/>
<path d="M420.369 309.513H422.757C422.957 309.513 423.12 309.359 423.12 309.168V308.084C423.12 307.893 422.957 307.739 422.757 307.739H420.369C420.168 307.739 420.006 307.893 420.006 308.084V309.168C420.006 309.359 420.168 309.513 420.369 309.513Z" fill="#3F3D56"/>
<path d="M414.14 309.513H416.528C416.729 309.513 416.891 309.359 416.891 309.168V308.084C416.891 307.893 416.729 307.739 416.528 307.739H414.14C413.94 307.739 413.777 307.893 413.777 308.084V309.168C413.777 309.359 413.94 309.513 414.14 309.513Z" fill="#3F3D56"/>
<path d="M407.912 309.513H410.3C410.501 309.513 410.663 309.359 410.663 309.168V308.084C410.663 307.893 410.501 307.739 410.3 307.739H407.912C407.712 307.739 407.549 307.893 407.549 308.084V309.168C407.549 309.359 407.712 309.513 407.912 309.513Z" fill="#3F3D56"/>
<path d="M401.684 309.513H404.072C404.272 309.513 404.435 309.359 404.435 309.168V308.084C404.435 307.893 404.272 307.739 404.072 307.739H401.684C401.483 307.739 401.321 307.893 401.321 308.084V309.168C401.321 309.359 401.483 309.513 401.684 309.513Z" fill="#3F3D56"/>
<path d="M395.455 309.513H397.844C398.044 309.513 398.207 309.359 398.207 309.168V308.084C398.207 307.893 398.044 307.739 397.844 307.739H395.455C395.255 307.739 395.092 307.893 395.092 308.084V309.168C395.092 309.359 395.255 309.513 395.455 309.513Z" fill="#3F3D56"/>
<path d="M389.227 309.513H391.615C391.816 309.513 391.978 309.359 391.978 309.168V308.084C391.978 307.893 391.816 307.739 391.615 307.739H389.227C389.027 307.739 388.864 307.893 388.864 308.084V309.168C388.864 309.359 389.027 309.513 389.227 309.513Z" fill="#3F3D56"/>
<path d="M382.999 309.513H385.387C385.588 309.513 385.75 309.359 385.75 309.168V308.084C385.75 307.893 385.588 307.739 385.387 307.739H382.999C382.798 307.739 382.636 307.893 382.636 308.084V309.168C382.636 309.359 382.798 309.513 382.999 309.513Z" fill="#3F3D56"/>
<path d="M376.771 309.513H379.159C379.359 309.513 379.522 309.359 379.522 309.168V308.084C379.522 307.893 379.359 307.739 379.159 307.739H376.771C376.57 307.739 376.408 307.893 376.408 308.084V309.168C376.408 309.359 376.57 309.513 376.771 309.513Z" fill="#3F3D56"/>
<path d="M370.542 309.513H372.93C373.131 309.513 373.293 309.359 373.293 309.168V308.084C373.293 307.893 373.131 307.739 372.93 307.739H370.542C370.342 307.739 370.179 307.893 370.179 308.084V309.168C370.179 309.359 370.342 309.513 370.542 309.513Z" fill="#3F3D56"/>
<path d="M412.272 313.061H436.459C436.659 313.061 436.822 312.907 436.822 312.717V311.632C436.822 311.441 436.659 311.287 436.459 311.287H412.272C412.071 311.287 411.909 311.441 411.909 311.632V312.717C411.909 312.907 412.071 313.061 412.272 313.061Z" fill="#3F3D56"/>
<path d="M386.646 253.26H384.532C383.891 253.26 383.371 253.753 383.371 254.362C383.371 254.97 383.891 255.464 384.532 255.464H386.646C387.287 255.464 387.807 254.97 387.807 254.362C387.807 253.753 387.287 253.26 386.646 253.26Z" fill="white"/>
<path d="M410.827 253.26H408.713C408.072 253.26 407.552 253.753 407.552 254.362C407.552 254.97 408.072 255.464 408.713 255.464H410.827C411.468 255.464 411.988 254.97 411.988 254.362C411.988 253.753 411.468 253.26 410.827 253.26Z" fill="white"/>
<path d="M417.678 253.26H415.564C414.923 253.26 414.403 253.753 414.403 254.362C414.403 254.97 414.923 255.464 415.564 255.464H417.678C418.319 255.464 418.839 254.97 418.839 254.362C418.839 253.753 418.319 253.26 417.678 253.26Z" fill="white"/>
<path d="M404.25 253.076H391.109C390.468 253.076 389.949 253.569 389.949 254.178C389.949 254.787 390.468 255.28 391.109 255.28H404.25C404.891 255.28 405.41 254.787 405.41 254.178C405.41 253.569 404.891 253.076 404.25 253.076Z" fill="white"/>
<path d="M436.491 253.076H423.35C422.709 253.076 422.19 253.569 422.19 254.178C422.19 254.787 422.709 255.28 423.35 255.28H436.491C437.132 255.28 437.652 254.787 437.652 254.178C437.652 253.569 437.132 253.076 436.491 253.076Z" fill="white"/>
<path d="M393.094 258.234H390.98C390.339 258.234 389.819 258.728 389.819 259.336C389.819 259.945 390.339 260.439 390.98 260.439H393.094C393.735 260.439 394.255 259.945 394.255 259.336C394.255 258.728 393.735 258.234 393.094 258.234Z" fill="white"/>
<path d="M417.275 258.234H415.161C414.52 258.234 414 258.728 414 259.336C414 259.945 414.52 260.439 415.161 260.439H417.275C417.916 260.439 418.436 259.945 418.436 259.336C418.436 258.728 417.916 258.234 417.275 258.234Z" fill="white"/>
<path d="M424.126 258.234H422.012C421.371 258.234 420.852 258.728 420.852 259.336C420.852 259.945 421.371 260.439 422.012 260.439H424.126C424.767 260.439 425.287 259.945 425.287 259.336C425.287 258.728 424.767 258.234 424.126 258.234Z" fill="white"/>
<path d="M410.698 258.051H397.557C396.916 258.051 396.397 258.544 396.397 259.153C396.397 259.761 396.916 260.255 397.557 260.255H410.698C411.339 260.255 411.859 259.761 411.859 259.153C411.859 258.544 411.339 258.051 410.698 258.051Z" fill="white"/>
<path d="M442.939 258.051H429.799C429.158 258.051 428.638 258.544 428.638 259.153C428.638 259.761 429.158 260.255 429.799 260.255H442.939C443.58 260.255 444.1 259.761 444.1 259.153C444.1 258.544 443.58 258.051 442.939 258.051Z" fill="white"/>
<path d="M399.543 263.209H397.428C396.787 263.209 396.268 263.703 396.268 264.311C396.268 264.92 396.787 265.413 397.428 265.413H399.543C400.184 265.413 400.703 264.92 400.703 264.311C400.703 263.703 400.184 263.209 399.543 263.209Z" fill="white"/>
<path d="M423.723 263.209H421.609C420.968 263.209 420.449 263.703 420.449 264.311C420.449 264.92 420.968 265.413 421.609 265.413H423.723C424.364 265.413 424.884 264.92 424.884 264.311C424.884 263.703 424.364 263.209 423.723 263.209Z" fill="white"/>
<path d="M430.575 263.209H428.46C427.819 263.209 427.3 263.703 427.3 264.311C427.3 264.92 427.819 265.413 428.46 265.413H430.575C431.216 265.413 431.735 264.92 431.735 264.311C431.735 263.703 431.216 263.209 430.575 263.209Z" fill="white"/>
<path d="M417.146 263.025H404.006C403.365 263.025 402.845 263.519 402.845 264.127C402.845 264.736 403.365 265.23 404.006 265.23H417.146C417.787 265.23 418.307 264.736 418.307 264.127C418.307 263.519 417.787 263.025 417.146 263.025Z" fill="white"/>
<path d="M449.387 263.025H436.247C435.606 263.025 435.086 263.519 435.086 264.127C435.086 264.736 435.606 265.23 436.247 265.23H449.387C450.028 265.23 450.548 264.736 450.548 264.127C450.548 263.519 450.028 263.025 449.387 263.025Z" fill="white"/>
<path d="M405.991 268.184H403.877C403.236 268.184 402.716 268.677 402.716 269.286C402.716 269.895 403.236 270.388 403.877 270.388H405.991C406.632 270.388 407.152 269.895 407.152 269.286C407.152 268.677 406.632 268.184 405.991 268.184Z" fill="white"/>
<path d="M430.172 268.184H428.057C427.416 268.184 426.897 268.677 426.897 269.286C426.897 269.895 427.416 270.388 428.057 270.388H430.172C430.813 270.388 431.332 269.895 431.332 269.286C431.332 268.677 430.813 268.184 430.172 268.184Z" fill="white"/>
<path d="M437.023 268.184H434.909C434.268 268.184 433.748 268.677 433.748 269.286C433.748 269.895 434.268 270.388 434.909 270.388H437.023C437.664 270.388 438.184 269.895 438.184 269.286C438.184 268.677 437.664 268.184 437.023 268.184Z" fill="white"/>
<path d="M423.594 268H410.454C409.813 268 409.293 268.494 409.293 269.102C409.293 269.711 409.813 270.204 410.454 270.204H423.594C424.235 270.204 424.755 269.711 424.755 269.102C424.755 268.494 424.235 268 423.594 268Z" fill="white"/>
<path d="M410.827 287.966H408.713C408.072 287.966 407.552 288.459 407.552 289.068C407.552 289.676 408.072 290.17 408.713 290.17H410.827C411.468 290.17 411.988 289.676 411.988 289.068C411.988 288.459 411.468 287.966 410.827 287.966Z" fill="white"/>
<path d="M417.678 287.966H415.564C414.923 287.966 414.403 288.459 414.403 289.068C414.403 289.676 414.923 290.17 415.564 290.17H417.678C418.319 290.17 418.839 289.676 418.839 289.068C418.839 288.459 418.319 287.966 417.678 287.966Z" fill="white"/>
<path d="M436.491 288.149H423.35C422.709 288.149 422.19 288.643 422.19 289.252C422.19 289.86 422.709 290.354 423.35 290.354H436.491C437.132 290.354 437.652 289.86 437.652 289.252C437.652 288.643 437.132 288.149 436.491 288.149Z" fill="white"/>
<path d="M386.646 287.966H384.532C383.891 287.966 383.371 288.459 383.371 289.068C383.371 289.676 383.891 290.17 384.532 290.17H386.646C387.287 290.17 387.807 289.676 387.807 289.068C387.807 288.459 387.287 287.966 386.646 287.966Z" fill="white"/>
<path d="M404.25 288.149H391.109C390.468 288.149 389.949 288.643 389.949 289.252C389.949 289.86 390.468 290.354 391.109 290.354H404.25C404.891 290.354 405.41 289.86 405.41 289.252C405.41 288.643 404.891 288.149 404.25 288.149Z" fill="white"/>
<path d="M393.094 282.991H390.98C390.339 282.991 389.819 283.484 389.819 284.093C389.819 284.702 390.339 285.195 390.98 285.195H393.094C393.735 285.195 394.255 284.702 394.255 284.093C394.255 283.484 393.735 282.991 393.094 282.991Z" fill="white"/>
<path d="M417.275 282.991H415.161C414.52 282.991 414 283.484 414 284.093C414 284.702 414.52 285.195 415.161 285.195H417.275C417.916 285.195 418.436 284.702 418.436 284.093C418.436 283.484 417.916 282.991 417.275 282.991Z" fill="white"/>
<path d="M424.126 282.991H422.012C421.371 282.991 420.852 283.484 420.852 284.093C420.852 284.702 421.371 285.195 422.012 285.195H424.126C424.767 285.195 425.287 284.702 425.287 284.093C425.287 283.484 424.767 282.991 424.126 282.991Z" fill="white"/>
<path d="M410.698 283.175H397.557C396.916 283.175 396.397 283.668 396.397 284.277C396.397 284.885 396.916 285.379 397.557 285.379H410.698C411.339 285.379 411.859 284.885 411.859 284.277C411.859 283.668 411.339 283.175 410.698 283.175Z" fill="white"/>
<path d="M399.543 278.016H397.428C396.787 278.016 396.268 278.51 396.268 279.118C396.268 279.727 396.787 280.22 397.428 280.22H399.543C400.184 280.22 400.703 279.727 400.703 279.118C400.703 278.51 400.184 278.016 399.543 278.016Z" fill="white"/>
<path d="M423.723 278.016H421.609C420.968 278.016 420.449 278.51 420.449 279.118C420.449 279.727 420.968 280.22 421.609 280.22H423.723C424.364 280.22 424.884 279.727 424.884 279.118C424.884 278.51 424.364 278.016 423.723 278.016Z" fill="white"/>
<path d="M430.575 278.016H428.46C427.819 278.016 427.3 278.51 427.3 279.118C427.3 279.727 427.819 280.22 428.46 280.22H430.575C431.216 280.22 431.735 279.727 431.735 279.118C431.735 278.51 431.216 278.016 430.575 278.016Z" fill="white"/>
<path d="M417.146 278.2H404.006C403.365 278.2 402.845 278.693 402.845 279.302C402.845 279.911 403.365 280.404 404.006 280.404H417.146C417.787 280.404 418.307 279.911 418.307 279.302C418.307 278.693 417.787 278.2 417.146 278.2Z" fill="white"/>
<path d="M405.991 273.041H403.877C403.236 273.041 402.716 273.535 402.716 274.143C402.716 274.752 403.236 275.246 403.877 275.246H405.991C406.632 275.246 407.152 274.752 407.152 274.143C407.152 273.535 406.632 273.041 405.991 273.041Z" fill="white"/>
<path d="M430.172 273.041H428.057C427.416 273.041 426.897 273.535 426.897 274.143C426.897 274.752 427.416 275.246 428.057 275.246H430.172C430.813 275.246 431.332 274.752 431.332 274.143C431.332 273.535 430.813 273.041 430.172 273.041Z" fill="white"/>
<path d="M437.023 273.041H434.909C434.268 273.041 433.748 273.535 433.748 274.143C433.748 274.752 434.268 275.246 434.909 275.246H437.023C437.664 275.246 438.184 274.752 438.184 274.143C438.184 273.535 437.664 273.041 437.023 273.041Z" fill="white"/>
<path d="M423.594 273.225H410.454C409.813 273.225 409.293 273.719 409.293 274.327C409.293 274.936 409.813 275.429 410.454 275.429H423.594C424.235 275.429 424.755 274.936 424.755 274.327C424.755 273.719 424.235 273.225 423.594 273.225Z" fill="white"/>
<path d="M375.406 346.268L365.48 331.371L396.634 307.789L409.493 294.262C411.164 292.505 413.291 291.194 415.662 290.462C418.033 289.73 420.565 289.601 423.005 290.089C425.445 290.577 427.707 291.664 429.566 293.242C431.424 294.821 432.814 296.834 433.596 299.082C434.755 302.414 434.506 306.042 432.901 309.202C431.296 312.362 428.461 314.807 424.994 316.019L404.66 323.132L375.406 346.268Z" fill="#FFB6B6"/>
<path d="M142.521 238.253V310.658H195.942V238.253C195.943 237.732 195.768 237.225 195.442 236.806C195.117 236.387 194.659 236.077 194.135 235.924C193.888 235.846 193.629 235.808 193.369 235.811H145.101C144.763 235.81 144.428 235.873 144.115 235.995C143.802 236.118 143.518 236.297 143.278 236.524C143.039 236.751 142.848 237.02 142.719 237.317C142.589 237.614 142.522 237.932 142.521 238.253ZM163.369 263.132C163.383 261.704 163.99 260.34 165.058 259.335C166.126 258.331 167.568 257.767 169.072 257.767C170.575 257.767 172.018 258.331 173.085 259.335C174.153 260.34 174.76 261.704 174.774 263.132V271.533C174.767 272.964 174.162 274.334 173.094 275.344C172.025 276.353 170.579 276.92 169.072 276.92C167.564 276.92 166.118 276.353 165.05 275.344C163.981 274.334 163.377 272.964 163.369 271.533V263.132Z" fill="#2F2E41"/>
<path d="M142.358 308.343V315.325C142.359 315.686 142.51 316.033 142.779 316.289C143.048 316.546 143.412 316.691 143.793 316.694H194.67C195.052 316.692 195.417 316.547 195.686 316.291C195.955 316.034 196.105 315.687 196.105 315.325V308.343H142.358Z" fill="#3F3D56"/>
<path d="M58.4836 129.166V261.367C58.485 263.052 59.1905 264.667 60.4451 265.858C61.6997 267.049 63.4009 267.719 65.1751 267.721H271.496C273.27 267.719 274.972 267.049 276.226 265.858C277.481 264.667 278.186 263.052 278.188 261.367V129.166C278.183 127.483 277.477 125.87 276.223 124.68C274.968 123.49 273.269 122.821 271.496 122.819H65.1751C63.4024 122.821 61.7028 123.49 60.4486 124.68C59.1944 125.87 58.4879 127.483 58.4836 129.166Z" fill="#3F3D56"/>
<path d="M63.3238 130.811V259.736C63.3255 260.636 63.7027 261.499 64.3731 262.135C65.0434 262.772 65.9521 263.13 66.9001 263.132H269.779C270.727 263.13 271.635 262.772 272.306 262.135C272.976 261.499 273.353 260.636 273.355 259.736V130.811C273.355 129.91 272.978 129.045 272.308 128.407C271.637 127.769 270.728 127.41 269.779 127.408H66.9001C65.9509 127.41 65.0414 127.769 64.3709 128.407C63.7005 129.045 63.3239 129.91 63.3238 130.811Z" fill="white"/>
<path d="M100.975 316.221C101.181 316.467 101.444 316.665 101.742 316.801C102.041 316.937 102.368 317.006 102.7 317.005H223.399C223.729 317.004 224.055 316.934 224.353 316.799C224.651 316.664 224.913 316.468 225.121 316.224C225.329 315.981 225.478 315.697 225.555 315.392C225.633 315.087 225.638 314.77 225.57 314.463L223.697 306.013C223.619 305.668 223.452 305.347 223.21 305.08C222.969 304.812 222.66 304.606 222.314 304.481C222.063 304.387 221.795 304.339 221.526 304.34H104.566C104.296 304.339 104.029 304.387 103.778 304.481C103.431 304.606 103.123 304.812 102.881 305.08C102.64 305.347 102.472 305.668 102.395 306.013L100.521 314.463C100.454 314.77 100.461 315.087 100.539 315.391C100.617 315.695 100.766 315.979 100.975 316.221Z" fill="#2F2E41"/>
<path d="M263.195 145.168H73.3619C73.1646 145.164 72.9768 145.087 72.8388 144.953C72.7008 144.819 72.6236 144.639 72.6236 144.451C72.6236 144.264 72.7008 144.084 72.8388 143.95C72.9768 143.816 73.1646 143.739 73.3619 143.734H263.195C263.392 143.739 263.58 143.816 263.718 143.95C263.856 144.084 263.933 144.264 263.933 144.451C263.933 144.639 263.856 144.819 263.718 144.953C263.58 145.087 263.392 145.164 263.195 145.168Z" fill="#3F3D56"/>
<path d="M86.2841 140.074C88.7274 140.074 90.7082 138.152 90.7082 135.78C90.7082 133.408 88.7274 131.486 86.2841 131.486C83.8407 131.486 81.8599 133.408 81.8599 135.78C81.8599 138.152 83.8407 140.074 86.2841 140.074Z" fill="#3F3D56"/>
<path d="M101.567 140.074C104.011 140.074 105.992 138.152 105.992 135.78C105.992 133.408 104.011 131.486 101.567 131.486C99.1241 131.486 97.1433 133.408 97.1433 135.78C97.1433 138.152 99.1241 140.074 101.567 140.074Z" fill="#3F3D56"/>
<path d="M116.851 140.074C119.294 140.074 121.275 138.152 121.275 135.78C121.275 133.408 119.294 131.486 116.851 131.486C114.407 131.486 112.427 133.408 112.427 135.78C112.427 138.152 114.407 140.074 116.851 140.074Z" fill="#3F3D56"/>
<path d="M253.991 132.548H243.136C242.922 132.552 242.718 132.637 242.568 132.782C242.418 132.928 242.334 133.124 242.334 133.328C242.334 133.531 242.418 133.727 242.568 133.873C242.718 134.019 242.922 134.103 243.136 134.108H253.991C254.207 134.105 254.413 134.021 254.565 133.875C254.717 133.729 254.802 133.533 254.802 133.328C254.802 133.123 254.717 132.926 254.565 132.78C254.413 132.634 254.207 132.55 253.991 132.548Z" fill="#3F3D56"/>
<path d="M253.991 135.477H243.136C242.922 135.482 242.717 135.566 242.567 135.712C242.417 135.858 242.333 136.054 242.333 136.257C242.333 136.461 242.417 136.657 242.567 136.803C242.717 136.949 242.922 137.033 243.136 137.038H253.991C254.208 137.035 254.414 136.952 254.566 136.806C254.718 136.66 254.803 136.463 254.803 136.257C254.803 136.052 254.718 135.855 254.566 135.709C254.414 135.563 254.208 135.48 253.991 135.477Z" fill="#3F3D56"/>
<path d="M253.991 138.407H243.136C242.922 138.412 242.718 138.496 242.568 138.642C242.418 138.788 242.334 138.983 242.334 139.187C242.334 139.391 242.418 139.587 242.568 139.733C242.718 139.878 242.922 139.963 243.136 139.967H253.991C254.207 139.964 254.413 139.881 254.565 139.735C254.717 139.589 254.802 139.392 254.802 139.187C254.802 138.982 254.717 138.785 254.565 138.639C254.413 138.493 254.207 138.41 253.991 138.407Z" fill="#3F3D56"/>
<path d="M515.688 311.407C516.015 312.312 516.637 313.096 517.463 313.645C518.289 314.195 519.277 314.482 520.285 314.464L539.982 313.983C540.997 313.964 541.979 313.634 542.781 313.041C543.582 312.449 544.16 311.626 544.428 310.695L547.216 282.395C548.205 282.82 549.281 283.03 550.367 283.009C551.31 282.987 552.239 282.788 553.101 282.425C553.963 282.062 554.741 281.54 555.392 280.891C556.042 280.242 556.551 279.478 556.89 278.642C557.229 277.806 557.391 276.915 557.367 276.02C557.344 275.124 557.134 274.242 556.752 273.423C556.369 272.605 555.82 271.866 555.137 271.248C554.453 270.631 553.648 270.148 552.768 269.826C551.888 269.504 550.949 269.35 550.006 269.372C549.572 269.371 549.139 269.414 548.715 269.5C548.254 269.026 547.693 268.649 547.069 268.393C546.445 268.138 545.771 268.009 545.091 268.015L514.793 268.758C514.542 268.767 514.292 268.796 514.046 268.846C513.382 268.964 512.751 269.215 512.198 269.584C511.644 269.952 511.18 270.428 510.837 270.981C510.494 271.534 510.279 272.15 510.208 272.788C510.136 273.427 510.21 274.072 510.423 274.681L515.688 311.407ZM547.787 280.473L549.771 273.729C549.996 272.95 550.002 272.128 549.786 271.347C549.882 271.347 549.967 271.303 550.063 271.303C551.423 271.276 552.739 271.763 553.722 272.656C554.704 273.549 555.274 274.775 555.306 276.066C555.338 277.358 554.829 278.608 553.891 279.544C552.954 280.479 551.664 281.024 550.304 281.058C549.425 281.084 548.555 280.882 547.787 280.473Z" fill="#2F2E41"/>
<path d="M514.046 268.846C514.692 272.351 521.949 274.814 530.675 274.386C538.699 274.035 545.261 271.36 546.463 268.189C546.018 268.064 545.555 268.005 545.091 268.015L514.793 268.758C514.542 268.767 514.292 268.796 514.046 268.846Z" fill="#3F3D56"/>
<path d="M532.274 295.855C532.314 295.846 532.352 295.83 532.386 295.808L536.664 293.15C536.716 293.118 536.758 293.074 536.788 293.023C536.817 292.971 536.832 292.913 536.832 292.855C536.832 292.796 536.817 292.739 536.788 292.687C536.758 292.635 536.716 292.592 536.664 292.56L532.218 289.795C532.177 289.769 532.132 289.751 532.084 289.742C532.036 289.734 531.986 289.734 531.938 289.743C531.89 289.753 531.845 289.771 531.804 289.797C531.764 289.823 531.729 289.856 531.702 289.895C531.676 289.934 531.657 289.978 531.648 290.023C531.639 290.069 531.64 290.116 531.65 290.161C531.66 290.207 531.679 290.25 531.707 290.288C531.734 290.327 531.77 290.359 531.811 290.385L535.782 292.854L531.98 295.218C531.906 295.264 531.852 295.333 531.827 295.413C531.802 295.493 531.807 295.579 531.843 295.655C531.878 295.732 531.941 295.794 532.02 295.83C532.099 295.867 532.189 295.876 532.274 295.855H532.274Z" fill="#00BFA6"/>
<path d="M525.518 296.151C525.59 296.134 525.655 296.097 525.704 296.044C525.754 295.992 525.785 295.927 525.795 295.857C525.805 295.787 525.793 295.716 525.761 295.653C525.728 295.59 525.676 295.538 525.612 295.503L521.669 293.356L525.48 290.669C525.519 290.641 525.552 290.606 525.577 290.567C525.602 290.527 525.619 290.483 525.626 290.437C525.633 290.391 525.631 290.344 525.619 290.299C525.607 290.255 525.586 290.212 525.557 290.175C525.528 290.138 525.491 290.107 525.449 290.083C525.407 290.059 525.361 290.043 525.313 290.036C525.264 290.03 525.215 290.032 525.168 290.043C525.121 290.055 525.076 290.075 525.037 290.102L520.77 293.112C520.721 293.147 520.681 293.193 520.655 293.246C520.629 293.299 520.617 293.357 520.621 293.416C520.624 293.474 520.643 293.531 520.676 293.581C520.708 293.631 520.753 293.672 520.807 293.701L525.242 296.115C525.326 296.161 525.425 296.174 525.518 296.151Z" fill="#00BFA6"/>
<path d="M531.849 298.185C531.885 298.176 531.919 298.163 531.951 298.144C531.992 298.12 532.029 298.088 532.058 298.051C532.087 298.014 532.107 297.971 532.119 297.926C532.13 297.881 532.133 297.834 532.125 297.789C532.118 297.743 532.101 297.699 532.075 297.659L526.012 288.193C525.96 288.113 525.878 288.056 525.782 288.034C525.686 288.012 525.585 288.027 525.501 288.076C525.417 288.125 525.356 288.203 525.333 288.294C525.31 288.385 525.325 288.481 525.376 288.561L531.44 298.027C531.481 298.091 531.543 298.141 531.617 298.17C531.691 298.198 531.772 298.204 531.849 298.185Z" fill="#00BFA6"/>
<path d="M190.96 184.138H158.104C156.764 184.138 155.677 185.169 155.677 186.442V189.49C155.677 190.763 156.764 191.794 158.104 191.794H190.96C192.3 191.794 193.387 190.763 193.387 189.49V186.442C193.387 185.169 192.3 184.138 190.96 184.138Z" fill="#00BFA6"/>
<path d="M210.111 199.451H138.953C137.612 199.451 136.526 200.483 136.526 201.756V204.804C136.526 206.076 137.612 207.108 138.953 207.108H210.111C211.452 207.108 212.538 206.076 212.538 204.804V201.756C212.538 200.483 211.452 199.451 210.111 199.451Z" fill="#E6E6E6"/>
<path d="M210.111 214.765H138.953C137.612 214.765 136.526 215.797 136.526 217.069V220.117C136.526 221.39 137.612 222.422 138.953 222.422H210.111C211.452 222.422 212.538 221.39 212.538 220.117V217.069C212.538 215.797 211.452 214.765 210.111 214.765Z" fill="#E6E6E6"/>
<path d="M216.144 266.044L216.305 266.527L216.313 266.543L221.165 280.548L226.746 296.688L237.246 327.017L237.348 331.729V331.745L238.128 369.645L235.965 374.783L238.399 383.207C238.399 383.207 237.28 370.473 231.275 377.786C227.874 381.941 223.896 386.194 220.63 390.18C225.389 392.008 230.223 393.662 235.134 395.141C236.194 395.463 237.263 395.769 238.331 396.075C238.56 396.14 238.789 396.204 239.018 396.269C255.297 400.84 272.126 403.408 289.094 403.911C289.976 403.936 290.841 403.952 291.681 403.968C291.978 403.976 292.266 403.984 292.554 403.984C293.504 403.992 294.446 404 295.396 404C297.312 404 299.221 403.973 301.121 403.919C315.183 403.543 329.163 401.748 342.825 398.564C342.731 393.208 342.477 386.951 342.112 380.266C341.943 376.988 338.134 373.437 337.905 370.006C337.744 367.429 341.162 365.005 340.984 362.387C339.831 346.272 338.389 352.458 337.32 341.047C337.21 339.927 337.108 338.856 337.015 337.833C336.328 330.504 335.853 325.922 335.853 325.922L340.416 298.613L347.583 255.735L347.031 254.874L346.412 254.584L308.61 236.818L306.557 231.825C305.959 230.386 304.922 229.15 303.578 228.276C302.234 227.402 300.646 226.93 299.017 226.92L274.115 226.823C272.823 226.818 271.548 227.105 270.396 227.661C269.244 228.217 268.248 229.026 267.491 230.021L260.748 238.887L216.144 266.044Z" fill="#3F3D56"/>
<path d="M242.988 320.268L237.348 331.729L233.497 339.557L226.873 372.488L223.556 375.83L220.715 363.998L190.977 370.268C190.001 365.122 190.716 370.442 190.114 364.796C190.283 364.635 190.461 364.474 190.639 364.313C191.114 363.894 191.513 363.5 191.505 363.121C191.165 343.648 192.183 310.508 200.682 290.43C202.013 287.152 203.768 284.044 205.906 281.177C206.076 280.959 206.237 280.742 206.398 280.524C210.317 275.314 212.793 270.184 216.305 266.535V266.527C216.327 266.511 216.346 266.492 216.364 266.471C216.377 266.465 216.388 266.457 216.398 266.447L240.52 254.302L241.554 281.909L242.292 301.753L242.988 320.268Z" fill="#3F3D56"/>
<path d="M329.966 323.523L337.011 337.837L339.47 342.822L346.093 375.75L349.398 379.084L352.246 367.255L353.584 366.994L377.717 362.249L384.751 383.46C386.336 380.952 386.961 378.001 386.519 375.106C386.077 372.211 384.596 369.55 382.326 367.572C381.846 367.159 381.446 366.758 381.457 366.378C381.857 343.474 380.382 301.651 367.057 284.438C362.826 278.975 360.286 273.534 356.592 269.733C356.581 269.722 356.581 269.712 356.569 269.712L347.579 255.735L347.03 254.877L346.413 254.583L329.966 323.523Z" fill="#3F3D56"/>
<path d="M287.285 220.094C305.582 220.094 320.415 206.01 320.415 188.637C320.415 171.264 305.582 157.18 287.285 157.18C268.989 157.18 254.156 171.264 254.156 188.637C254.156 206.01 268.989 220.094 287.285 220.094Z" fill="#FFB6B6"/>
<path d="M332.063 166.664C331.807 166.404 331.497 166.195 331.153 166.051C330.81 165.907 330.439 165.83 330.063 165.824L330.561 164.511C330.724 164.098 330.768 163.65 330.689 163.215C330.609 162.78 330.41 162.373 330.11 162.036C329.81 161.698 329.422 161.442 328.984 161.294C328.546 161.146 328.074 161.111 327.617 161.193L325.803 161.525L325.974 160.374C326.04 159.946 325.987 159.508 325.82 159.105C325.654 158.702 325.38 158.347 325.025 158.075C324.67 157.802 324.247 157.623 323.796 157.553C323.346 157.483 322.885 157.526 322.457 157.677C322.068 157.823 321.65 157.884 321.233 157.855C320.817 157.827 320.412 157.711 320.048 157.515C319.684 157.325 319.367 157.062 319.12 156.743C318.874 156.425 318.703 156.06 318.621 155.672L317.989 152.778L317.922 152.623C314.844 147.751 308.926 144.207 301.684 142.908C295.238 141.743 288.628 142.337 282.256 142.894C279.728 143.12 276.873 143.374 274.494 144.758C272.472 145.944 270.762 148.316 271.111 150.709C264.829 148.881 258.093 152.531 254.754 157.134C250.799 162.612 250.152 169.474 250.048 174.84C249.765 187.533 252.524 197.918 258.226 205.712C258.643 206.277 258.747 207.456 259.572 207.851L259.401 207.59C260.323 208.028 261.26 208.734 260.91 209.489C259.907 211.663 266.576 216.471 271.275 218.059C279.847 220.961 291.245 220.714 299.26 219.669L299.543 217.869C302.435 217.495 304.472 216.782 305.045 215.666C306.056 214.847 306.918 214.113 307.669 213.435L307.677 213.428C307.691 213.414 307.721 213.393 307.736 213.379C311.357 210.082 312.197 208.204 312.576 205.345C312.94 202.542 312.294 199.697 311.632 197.134C325.565 199.182 306.145 183.043 319.126 179.923C319.275 179.879 319.427 179.844 319.58 179.817C319.959 179.732 320.338 179.647 320.703 179.549C322.459 179.096 324.14 178.414 325.699 177.522C329.327 175.426 330.524 172.644 332.398 169.51C332.668 169.063 332.782 168.547 332.721 168.035C332.661 167.523 332.431 167.043 332.063 166.664Z" fill="#2F2E41"/>
<path d="M404.458 325.763C404.45 326.999 404.436 328.728 404.376 330.867C404.369 331.164 404.361 331.467 404.354 331.778C404.257 335.71 404.16 339.007 404.004 342.671C403.997 342.925 403.989 343.172 403.975 343.427C403.766 348.538 403.439 354.489 402.874 363.914C401.826 381.323 399.997 366.307 398.16 372.414C398.071 372.718 397.974 373.078 397.885 373.501C397.607 375.038 397.138 376.538 396.487 377.97C395.513 378.521 394.51 379.05 393.521 379.58C390.703 381.069 387.841 382.502 384.956 383.865C383.335 384.627 381.707 385.376 380.071 386.096C379.811 386.209 379.558 386.322 379.305 386.428C370.929 390.106 362.297 393.234 353.469 395.789C351.744 396.283 350.026 396.763 348.286 397.208C346.472 397.688 344.658 398.14 342.822 398.563C329.16 401.748 315.181 403.544 301.119 403.922C299.223 403.978 297.312 403.999 295.394 403.999C294.442 403.999 293.505 403.992 292.554 403.985C292.264 403.985 291.974 403.978 291.684 403.971C290.844 403.95 289.974 403.936 289.096 403.915C272.129 403.412 255.3 400.843 239.022 396.269L238.33 396.078C237.26 395.768 236.197 395.464 235.133 395.139C230.226 393.664 225.391 392.012 220.628 390.183C216.992 388.793 213.398 387.301 209.847 385.708C209.814 385.699 209.784 385.685 209.758 385.665C209.014 385.34 208.263 385.002 207.52 384.656C207.423 384.606 207.319 384.557 207.215 384.507C204.442 383.222 201.698 381.876 198.984 380.469C196.702 375.492 193.49 374.539 191.497 370.162C190.917 368.862 190.498 367.502 190.248 366.11C190.248 366.095 190.241 366.081 190.241 366.06C190.449 368.686 189.356 361.401 190.233 366.032C190.226 365.947 190.219 365.855 190.211 365.75C190.189 365.495 190.159 365.185 190.114 364.797C187.564 341.153 187.728 314.115 186.62 291.834C186.546 290.394 186.469 289.015 186.39 287.697C186.367 287.259 186.338 286.829 186.308 286.405C186.36 286.278 186.419 286.144 186.486 286.017C186.5 285.98 186.518 285.945 186.538 285.911C186.56 285.867 186.585 285.825 186.613 285.784C186.627 285.763 186.65 285.734 186.665 285.713C186.675 285.689 186.688 285.665 186.702 285.643C186.769 285.544 186.843 285.438 186.925 285.339C186.962 285.297 186.992 285.261 187.029 285.226C187.055 285.19 187.085 285.157 187.118 285.127C187.141 285.093 187.168 285.062 187.2 285.035C187.23 285.007 187.259 284.972 187.297 284.937C187.312 284.914 187.333 284.895 187.356 284.88C187.415 284.816 187.48 284.757 187.549 284.704C187.815 284.472 188.098 284.259 188.397 284.068C188.501 284.005 188.613 283.941 188.717 283.871C189.466 283.445 190.255 283.086 191.074 282.797C191.356 282.699 191.639 282.607 191.943 282.508C192.055 282.48 192.159 282.444 192.271 282.409C192.434 282.36 192.598 282.31 192.769 282.275C193.616 282.035 194.531 281.83 195.52 281.64C195.639 281.618 195.765 281.597 195.891 281.569C196.07 281.534 196.256 281.506 196.442 281.477C196.694 281.435 196.955 281.393 197.215 281.35C199.423 281.018 201.929 280.771 204.694 280.609C204.955 280.595 205.215 280.581 205.475 280.567C205.78 280.552 206.085 280.538 206.397 280.524C206.657 280.51 206.925 280.503 207.193 280.496C207.453 280.482 207.721 280.475 207.996 280.468C208.747 280.447 209.52 280.425 210.308 280.411C212.553 280.369 214.918 280.383 217.401 280.432C218.553 280.461 219.728 280.489 220.933 280.538C221.014 280.538 221.089 280.545 221.163 280.545C222.211 280.581 223.267 280.623 224.353 280.68C225.111 280.715 225.877 280.75 226.643 280.792C227.364 280.835 228.092 280.877 228.828 280.927C229.401 280.955 229.973 280.997 230.553 281.033C231.044 281.068 231.535 281.103 232.025 281.131L232.695 281.174C233.059 281.202 233.423 281.223 233.795 281.258C234.613 281.322 235.431 281.386 236.263 281.449C237.089 281.52 237.929 281.59 238.769 281.661C239.609 281.731 240.457 281.809 241.304 281.887C241.394 281.894 241.475 281.901 241.557 281.908C242.33 281.986 243.104 282.056 243.884 282.134C244.063 282.148 244.249 282.162 244.427 282.183C245.171 282.254 245.93 282.337 246.681 282.413C246.912 282.437 247.141 282.46 247.372 282.484C247.961 282.545 248.541 282.597 249.133 282.663C249.914 282.748 250.71 282.826 251.483 282.925C252.085 282.988 252.687 283.052 253.289 283.122C254.234 283.228 255.193 283.341 256.152 283.461C256.516 283.503 256.881 283.546 257.245 283.595C259.981 283.92 262.747 284.28 265.557 284.654C269.817 285.226 274.145 285.847 278.502 286.518C282.866 287.189 287.255 287.897 291.669 288.643C292.784 288.834 293.899 289.024 295.022 289.222C295.528 289.314 296.033 289.405 296.539 289.497C297.401 289.645 298.264 289.801 299.126 289.956C299.989 290.111 300.851 290.267 301.714 290.429C302.74 290.62 303.773 290.81 304.799 291.001C311.558 292.272 318.279 293.627 324.836 295.046C325.914 295.279 326.993 295.519 328.063 295.752C330.204 296.225 332.326 296.705 334.428 297.192C335.007 297.319 335.58 297.453 336.152 297.588C337.58 297.926 339.008 298.265 340.413 298.611L340.658 298.675C341.692 298.915 342.703 299.162 343.714 299.416C346.1 300.009 348.447 300.609 350.755 301.216C352.286 301.619 353.801 302.026 355.298 302.438C357.536 303.052 359.729 303.673 361.863 304.301C362.391 304.457 362.918 304.612 363.439 304.76C365 305.219 366.539 305.685 368.034 306.151C369.223 306.518 370.383 306.892 371.528 307.267C372.673 307.641 373.796 308.015 374.896 308.389C375.603 308.629 376.301 308.883 377 309.123C378.004 309.476 378.993 309.829 379.959 310.182C380.257 310.288 380.547 310.401 380.837 310.507C381.023 310.585 381.201 310.648 381.38 310.719C381.729 310.853 382.086 310.98 382.428 311.114C382.777 311.241 383.119 311.375 383.461 311.516C383.796 311.644 384.138 311.778 384.465 311.912C384.8 312.039 385.127 312.173 385.454 312.314C385.729 312.42 385.997 312.533 386.257 312.646C386.785 312.865 387.313 313.084 387.826 313.31C388.078 313.423 388.331 313.529 388.584 313.641L389.164 313.896C389.246 313.938 389.328 313.973 389.409 314.009C389.595 314.093 389.788 314.185 389.974 314.27C390.406 314.46 390.829 314.665 391.246 314.856C391.803 315.124 392.346 315.392 392.867 315.654C393.394 315.922 393.907 316.19 394.398 316.451C394.48 316.494 394.554 316.536 394.636 316.578C394.748 316.635 394.859 316.698 394.971 316.755C395.35 316.96 395.714 317.171 396.079 317.376C396.792 317.793 397.469 318.202 398.101 318.612C398.242 318.703 398.376 318.795 398.517 318.88C398.986 319.197 399.432 319.508 399.848 319.826C399.848 319.833 399.848 319.833 399.855 319.833C399.997 319.932 400.131 320.038 400.264 320.136C400.376 320.235 400.495 320.32 400.606 320.419C400.993 320.737 401.35 321.04 401.677 321.351C401.787 321.447 401.891 321.548 401.989 321.654C402.033 321.688 402.072 321.726 402.108 321.767C402.257 321.908 402.391 322.05 402.517 322.191C402.537 322.21 402.554 322.232 402.569 322.254C402.748 322.452 402.911 322.65 403.067 322.847C403.142 322.946 403.224 323.045 403.29 323.144C403.38 323.264 403.469 323.391 403.543 323.511C403.61 323.61 403.67 323.716 403.729 323.815C403.887 324.069 404.021 324.336 404.131 324.612C404.214 324.8 404.281 324.993 404.331 325.191C404.388 325.379 404.43 325.57 404.458 325.763Z" fill="#2F2E41"/>
<path opacity="0.2" d="M404.458 325.763C404.45 326.999 404.436 328.728 404.376 330.867C404.369 331.164 404.354 331.467 404.346 331.778C404.272 334.778 404.16 338.485 404.004 342.671C403.997 342.925 403.989 343.172 403.975 343.427C403.766 348.538 403.439 354.489 402.874 363.914C401.826 381.323 399.997 366.307 398.16 372.414C393.06 369.435 387.469 366.314 381.491 363.109C380.413 362.53 379.325 361.949 378.227 361.365C366.272 355.033 352.918 348.397 338.978 341.824C338.428 341.563 337.87 341.302 337.32 341.047C305.387 326.06 270.531 311.481 242.293 301.753C236.843 299.875 231.639 298.181 226.747 296.691C216.442 293.564 207.535 291.375 200.68 290.429C193.542 289.441 188.613 289.794 186.62 291.834C186.546 290.394 186.469 289.015 186.389 287.697C186.36 287.259 186.33 286.829 186.3 286.405C186.346 286.289 186.406 286.178 186.463 286.066C186.472 286.05 186.478 286.033 186.486 286.017C186.5 285.98 186.518 285.945 186.538 285.911C186.56 285.867 186.585 285.825 186.613 285.784C186.637 285.734 186.667 285.686 186.702 285.642C186.769 285.544 186.843 285.438 186.925 285.339C186.985 285.265 187.049 285.194 187.118 285.127C187.141 285.093 187.168 285.062 187.2 285.035C187.23 285.007 187.259 284.972 187.297 284.936C187.312 284.914 187.333 284.895 187.356 284.88C187.415 284.816 187.48 284.757 187.549 284.704C187.815 284.472 188.098 284.259 188.397 284.068C188.501 284.005 188.613 283.941 188.717 283.87C189.466 283.445 190.255 283.086 191.074 282.797C191.356 282.699 191.639 282.607 191.943 282.508C192.055 282.48 192.159 282.444 192.271 282.409C192.434 282.36 192.598 282.31 192.769 282.275C193.616 282.035 194.531 281.83 195.52 281.64C195.817 281.583 196.129 281.527 196.442 281.477C196.694 281.435 196.955 281.393 197.215 281.35C199.423 281.018 201.929 280.771 204.694 280.609C204.955 280.595 205.215 280.581 205.475 280.567C205.78 280.552 206.085 280.538 206.397 280.524C206.657 280.51 206.925 280.503 207.193 280.496C207.453 280.482 207.72 280.475 207.996 280.468C208.747 280.447 209.52 280.425 210.308 280.411C212.553 280.376 214.918 280.39 217.401 280.439C218.553 280.461 219.728 280.496 220.932 280.545C221.007 280.545 221.089 280.552 221.163 280.552C222.211 280.581 223.274 280.63 224.353 280.679C225.111 280.715 225.877 280.75 226.642 280.792C227.364 280.835 228.092 280.877 228.828 280.927C229.401 280.955 229.973 280.997 230.553 281.032C231.044 281.068 231.535 281.103 232.025 281.131C232.613 281.174 233.2 281.216 233.795 281.258C234.613 281.322 235.431 281.385 236.263 281.449C237.089 281.52 237.929 281.59 238.769 281.661C239.609 281.731 240.457 281.809 241.304 281.887C241.394 281.894 241.475 281.901 241.557 281.908C242.33 281.986 243.104 282.056 243.884 282.134C248.211 282.55 252.665 283.037 257.245 283.595C259.981 283.927 262.752 284.282 265.557 284.661C269.817 285.233 274.145 285.854 278.502 286.518C282.866 287.189 287.255 287.897 291.669 288.643C292.784 288.833 293.899 289.024 295.022 289.222C296.39 289.462 297.758 289.707 299.126 289.956C299.989 290.111 300.851 290.267 301.714 290.429C302.74 290.62 303.773 290.81 304.799 291.001C311.558 292.272 318.279 293.627 324.836 295.046C325.915 295.279 326.993 295.519 328.063 295.752C330.204 296.225 332.326 296.705 334.428 297.192C335.007 297.326 335.58 297.461 336.152 297.595C337.587 297.934 339.008 298.272 340.413 298.611V298.618C340.495 298.632 340.576 298.654 340.658 298.675C341.684 298.922 342.703 299.169 343.714 299.423C346.1 300.016 348.447 300.614 350.755 301.216C352.286 301.626 353.803 302.028 355.298 302.438C357.536 303.059 359.729 303.68 361.863 304.301C362.391 304.457 362.918 304.612 363.439 304.76C365 305.226 366.532 305.69 368.034 306.151C369.223 306.518 370.383 306.892 371.528 307.267C372.673 307.641 373.796 308.015 374.896 308.389C375.61 308.629 376.309 308.876 377 309.116C378.011 309.469 378.993 309.822 379.959 310.182C380.257 310.288 380.547 310.401 380.837 310.507C381.38 310.705 381.907 310.909 382.428 311.114C382.777 311.241 383.119 311.375 383.461 311.516C383.796 311.644 384.138 311.778 384.465 311.912C384.8 312.039 385.127 312.173 385.454 312.314C385.729 312.42 385.997 312.533 386.257 312.646C386.785 312.865 387.313 313.084 387.826 313.31C388.078 313.423 388.331 313.529 388.584 313.641L389.164 313.896C389.246 313.938 389.328 313.973 389.409 314.009C390.041 314.291 390.651 314.573 391.246 314.856C391.803 315.124 392.346 315.392 392.867 315.654C393.484 315.964 394.071 316.268 394.636 316.578C394.748 316.635 394.859 316.698 394.971 316.755C395.35 316.96 395.714 317.171 396.079 317.376C396.792 317.793 397.469 318.202 398.101 318.611C398.725 319.021 399.305 319.423 399.848 319.826C399.848 319.833 399.848 319.833 399.855 319.833C400.116 320.03 400.369 320.228 400.606 320.419C400.993 320.736 401.35 321.04 401.677 321.351C401.787 321.447 401.891 321.548 401.989 321.654C402.033 321.688 402.072 321.726 402.108 321.767C402.264 321.93 402.421 322.092 402.569 322.254C402.748 322.452 402.911 322.65 403.067 322.847C403.142 322.946 403.224 323.045 403.29 323.144C403.38 323.264 403.469 323.391 403.543 323.511C403.61 323.61 403.67 323.716 403.729 323.815C403.887 324.069 404.021 324.336 404.131 324.612C404.212 324.8 404.279 324.994 404.331 325.191C404.388 325.379 404.43 325.57 404.458 325.763Z" fill="black"/>
</g>
<defs>
<clipPath id="clip0_270_119">
<rect width="585" height="404" fill="white"/>
</clipPath>
</defs>
</svg>
